HIERARCHY
ROOT Hips
{
 OFFSET 0.000000 0.000000 0.000000
 CHANNELS 6 Xposition Yposition Zposition Yrotation Xrotation Zrotation
 JOINT Chest
 {
  OFFSET 0.000000 9.588913 -0.003946
  CHANNELS 3 Yrotation Xrotation Zrotation
  JOINT Chest2
  {
   OFFSET 0.000000 9.541882 0.008053
   CHANNELS 3 Yrotation Xrotation Zrotation
   JOINT Chest3
   {
    OFFSET 0.000000 9.501360 0.000000
    CHANNELS 3 Yrotation Xrotation Zrotation
    JOINT Chest4
    {
     OFFSET 0.000000 9.491660 0.000000
     CHANNELS 3 Yrotation Xrotation Zrotation
     JOINT Neck
     {
      OFFSET 0.000000 14.331917 0.000000
      CHANNELS 3 Yrotation Xrotation Zrotation
      JOINT Head
      {
       OFFSET 0.000000 8.884799 0.017034
       CHANNELS 3 Yrotation Xrotation Zrotation
       End Site
       {
        OFFSET 0.000000 16.896195 0.008993
       }
      }
     }
     JOINT RightCollar
     {
      OFFSET -2.923010 9.499495 0.000000
      CHANNELS 3 Yrotation Xrotation Zrotation
      JOINT RightShoulder
      {
       OFFSET -13.795216 0.000000 0.000000
       CHANNELS 3 Yrotation Xrotation Zrotation
       JOINT RightElbow
       {
        OFFSET -30.272209 0.000000 0.000000
        CHANNELS 3 Yrotation Xrotation Zrotation
        JOINT RightWrist
        {
         OFFSET -24.478199 0.000000 0.000000
         CHANNELS 3 Yrotation Xrotation Zrotation
         End Site
         {
          OFFSET -18.090752 0.000000 0.000000
         }
        }
       }
      }
     }
     JOINT LeftCollar
     {
      OFFSET 2.923010 9.499495 0.000000
      CHANNELS 3 Yrotation Xrotation Zrotation
      JOINT LeftShoulder
      {
       OFFSET 13.795216 0.000000 0.000000
       CHANNELS 3 Yrotation Xrotation Zrotation
       JOINT LeftElbow
       {
        OFFSET 30.272209 0.000000 0.000000
        CHANNELS 3 Yrotation Xrotation Zrotation
        JOINT LeftWrist
        {
         OFFSET 24.478199 0.000000 0.000000
         CHANNELS 3 Yrotation Xrotation Zrotation
         End Site
         {
          OFFSET 18.090752 0.000000 0.000000
         }
        }
       }
      }
     }
    }
   }
  }
 }
 JOINT RightHip
 {
  OFFSET -7.826875 0.019532 0.001973
  CHANNELS 3 Yrotation Xrotation Zrotation
  JOINT RightKnee
  {
   OFFSET 0.000000 -40.546152 -0.001885
   CHANNELS 3 Yrotation Xrotation Zrotation
   JOINT RightAnkle
   {
    OFFSET 0.000000 -39.417092 -0.003189
    CHANNELS 3 Yrotation Xrotation Zrotation
    JOINT RightToe
    {
     OFFSET 0.000000 -7.579396 17.243563
     CHANNELS 3 Yrotation Xrotation Zrotation
     End Site
     {
      OFFSET 0.000000 -1.500329 6.694466
     }
    }
   }
  }
 }
 JOINT LeftHip
 {
  OFFSET 7.826875 0.019532 0.001973
  CHANNELS 3 Yrotation Xrotation Zrotation
  JOINT LeftKnee
  {
   OFFSET 0.000000 -40.546152 -0.001885
   CHANNELS 3 Yrotation Xrotation Zrotation
   JOINT LeftAnkle
   {
    OFFSET 0.000000 -39.417092 -0.003189
    CHANNELS 3 Yrotation Xrotation Zrotation
    JOINT LeftToe
    {
     OFFSET 0.000000 -7.579396 17.243563
     CHANNELS 3 Yrotation Xrotation Zrotation
     End Site
     {
      OFFSET 0.000000 -1.500329 6.694466
     }
    }
   }
  }
 }
}
MOTION
Frames: 8
Frame Time: 0.008333
0.000000 87.345680 0.000000 0.000000 -5.767889 0.000000 0.000000 11.653876 0.000000 0.000000 -5.885988 0.000000 0.000000 -0.000000 0.000000 0.000000 -0.000000 0.000000 0.000000 12.528808 0.000000 0.000000 0.711711 0.000000 0.000000 -0.000000 0.000000 0.000000 -0.000000 0.000000 2.309063 -0.000000 0.000000 -2.309063 -0.000000 -0.000000 0.000000 -0.000000 0.000000 0.000000 0.000000 0.000000 -2.309063 0.000000 0.000000 2.309063 -0.000000 0.000000 0.000000 8.520374 0.000000 0.000000 1.905768 0.000000 -0.000000 -4.658254 0.000000 0.000000 -0.000000 0.000000 0.000000 8.520374 0.000000 0.000000 1.905768 0.000000 -0.000000 -4.658254 0.000000 0.000000 -0.000000 0.000000
7.499929 89.077947 7.123266 48.292284 -5.239788 -0.358406 -0.782162 1.830735 0.092854 -0.446739 1.046324 0.060840 -0.558273 1.307976 0.074778 -0.446739 1.046324 0.060840 0.181635 17.498407 -0.018165 0.194692 -7.336619 -0.060201 0.519799 0.031806 0.418183 6.301410 -1.598484 89.136156 -1.708644 4.767366 -1.030239 -4.014895 -1.371756 -4.048346 3.400285 0.141771 -0.595306 -5.425390 -0.953644 -90.386776 1.486539 5.929561 0.819563 -1.637418 -3.060513 1.243868 1.285507 7.741088 0.296668 -0.601670 2.291570 -0.080535 1.278010 -4.792668 0.103561 0.000736 -0.001726 0.003203 1.601177 8.578142 0.255112 1.644016 1.814127 -0.050041 -2.854283 -5.268543 0.487894 0.001207 0.023679 0.003838
7.499915 89.077910 7.120312 48.286847 -5.243763 -0.356147 -0.782632 1.830588 0.090336 -0.446961 1.046386 0.059282 -0.558555 1.308052 0.072829 -0.446961 1.046386 0.059282 0.175002 17.491454 -0.022015 0.188598 -7.344210 -0.062737 0.532699 0.040714 0.407194 6.289812 -1.602046 89.136644 -1.708575 4.774048 -1.026573 -4.013232 -1.370240 -4.039290 3.395722 0.147863 -0.586681 -5.416260 -0.953671 -90.386966 1.488420 5.931494 0.821608 -1.630319 -3.065885 1.239175 1.284934 7.740945 0.292354 -0.603064 2.296405 -0.080659 1.283642 -4.794022 0.104909 0.000724 -0.002096 0.002946 1.607811 8.575572 0.254218 1.638391 1.825961 -0.055757 -2.852534 -5.275035 0.494505 0.000467 0.022425 0.002352
7.499880 89.077818 7.117091 48.283028 -5.248335 -0.354728 -0.784157 1.831068 0.088467 -0.447931 1.046557 0.058025 -0.559771 1.308265 0.071255 -0.447931 1.046557 0.058025 0.165971 17.481783 -0.027959 0.180460 -7.354765 -0.066925 0.548304 0.048594 0.396389 6.276958 -1.604622 89.134607 -1.704937 4.783000 -1.020838 -4.008426 -1.370401 -4.029588 3.391319 0.154058 -0.577848 -5.407231 -0.955001 -90.387940 1.491016 5.933684 0.822245 -1.623598 -3.069872 1.236245 1.282629 7.741821 0.289201 -0.602752 2.300676 -0.081167 1.286121 -4.795490 0.106767 0.001017 -0.002105 0.002446 1.610598 8.572752 0.252855 1.634665 1.839475 -0.060592 -2.848862 -5.281983 0.501327 0.000066 0.021045 0.000857
7.500061 89.077687 7.113972 48.278344 -5.254978 -0.354402 -0.785308 1.833204 0.086967 -0.448869 1.047520 0.056988 -0.560947 1.309467 0.069956 -0.448869 1.047520 0.056988 0.152985 17.468871 -0.036210 0.168696 -7.368854 -0.072637 0.566022 0.052222 0.387352 6.260102 -1.605431 89.129171 -1.699879 4.798381 -1.012164 -4.002473 -1.374698 -4.022760 3.386895 0.158696 -0.569289 -5.400388 -0.958194 -90.385734 1.496147 5.936052 0.821532 -1.616553 -3.072054 1.232456 1.283273 7.745418 0.288019 -0.601806 2.303712 -0.082149 1.284411 -4.796433 0.108961 0.001085 -0.002048 0.001982 1.611563 8.572371 0.251561 1.634178 1.853183 -0.064563 -2.843523 -5.289048 0.508132 0.000180 0.019591 -0.000533
7.500483 89.077518 7.111143 48.269989 -5.263537 -0.355470 -0.786176 1.836301 0.085828 -0.449613 1.049098 0.056331 -0.561879 1.311440 0.069129 -0.449613 1.049098 0.056331 0.136218 17.454454 -0.046541 0.153435 -7.384583 -0.079673 0.587128 0.053166 0.377743 6.243139 -1.606649 89.124410 -1.695855 4.807445 -1.001906 -3.994103 -1.376451 -4.021763 3.386439 0.162953 -0.561938 -5.394039 -0.961794 -90.379833 1.501152 5.944389 0.820608 -1.609748 -3.074796 1.224724 1.289138 7.751296 0.289402 -0.603913 2.305679 -0.084223 1.283744 -4.796671 0.111774 0.000841 -0.002051 0.001494 1.616877 8.574656 0.251812 1.635057 1.866351 -0.067736 -2.840233 -5.296188 0.515038 0.000372 0.018337 -0.002030
7.500943 89.077286 7.108368 48.262247 -5.271327 -0.357907 -0.788438 1.838819 0.084663 -0.451007 1.050397 0.055972 -0.563622 1.313063 0.068675 -0.451007 1.050397 0.055972 0.114834 17.440067 -0.058531 0.133710 -7.400276 -0.087401 0.611275 0.054494 0.368342 6.227593 -1.607536 89.122287 -1.691079 4.804038 -0.993341 -3.983733 -1.373628 -4.020677 3.389533 0.168114 -0.554841 -5.387151 -0.965440 -90.373614 1.504290 5.958970 0.820953 -1.600423 -3.077882 1.215284 1.296475 7.756383 0.292166 -0.610403 2.308103 -0.086623 1.287179 -4.797588 0.114362 0.000336 -0.001918 0.001448 1.622813 8.576502 0.253186 1.635617 1.878553 -0.070182 -2.838644 -5.303090 0.521760 0.000266 0.017703 -0.003342
7.501485 89.076995 7.105452 48.256937 -5.277252 -0.360490 -0.789566 1.840940 0.083114 -0.451694 1.051436 0.055485 -0.564482 1.314361 0.068064 -0.451694 1.051436 0.055485 0.082863 17.424324 -0.071575 0.103123 -7.417450 -0.093837 0.626583 0.055579 0.363307 6.218845 -1.606621 89.119964 -1.682652 4.799309 -0.986527 -3.974827 -1.375682 -4.015445 3.383207 0.173013 -0.546670 -5.377220 -0.970711 -90.368676 1.507605 5.977300 0.823548 -1.587928 -3.085575 1.206391 1.299797 7.759808 0.293908 -0.609882 2.310888 -0.088354 1.287750 -4.799498 0.116339 -0.000184 -0.001491 0.001870 1.629138 8.576885 0.255006 1.632676 1.889492 -0.072437 -2.838366 -5.309519 0.527420 0.000008 0.017591 -0.003751
